<?xml version="1.0" encoding="utf-8"?>
<!-- Generator: Adobe Illustrator 19.0.0, SVG Export Plug-In . SVG Version: 6.00 Build 0)  -->
<svg version="1.1" id="Layer_1" xmlns="http://www.w3.org/2000/svg" xmlns:xlink="http://www.w3.org/1999/xlink" x="0px" y="0px"
	 viewBox="0 0 100 100" style="enable-background:new 0 0 100 100;" xml:space="preserve">
<style type="text/css">
	.st0{fill:#31394A;}
	.st1{fill:#2C81C6;}
	.st2{fill:#FFFFFF;}
	.st3{font-family:'ArialRoundedMTBold';}
	.st4{font-size:18px;}
	.st5{font-size:10px;}
	.st6{opacity:0.3;fill:#FFFFFF;}
</style>
<path id="XMLID_1_" class="st0" d="M84,94.4H16c-2.2,0-4-1.8-4-4V9.6c0-2.2,1.8-4,4-4h68c2.2,0,4,1.8,4,4v80.9
	C88,92.6,86.2,94.4,84,94.4z"/>
<g id="XMLID_2_">
	
		<image style="overflow:visible;opacity:0.15;" width="244" height="244" id="XMLID_28_" xlink:href="29AA57027C4D5DD3.png"  transform="matrix(0.24 0 0 0.24 45.8132 47.24)">
	</image>
	<g id="XMLID_21_">
		<circle id="XMLID_27_" class="st1" cx="76" cy="77.5" r="20.2"/>
	</g>
</g>
<text id="XMLID_3_" transform="matrix(1 0 0 1 60.5198 83.3452)"><tspan x="0" y="0" class="st2 st3 st4">&lt;</tspan><tspan x="10.5" y="0" class="st2 st3 st5"> </tspan><tspan x="13" y="0" class="st2 st3 st4">/</tspan><tspan x="18" y="0" class="st2 st3 st5"> </tspan><tspan x="20.5" y="0" class="st2 st3 st4">&gt;</tspan></text>
<path id="XMLID_4_" class="st6" d="M70.6,20.3H20.5c-0.3,0-0.6-0.3-0.6-0.6v-4c0-0.3,0.3-0.6,0.6-0.6h50.1c0.3,0,0.6,0.3,0.6,0.6v4
	C71.2,20,70.9,20.3,70.6,20.3z"/>
<path id="XMLID_5_" class="st6" d="M45,30.9H20.5c-0.3,0-0.6-0.3-0.6-0.6v-4c0-0.3,0.3-0.6,0.6-0.6H45c0.3,0,0.6,0.3,0.6,0.6v4
	C45.6,30.7,45.3,30.9,45,30.9z"/>
<path id="XMLID_6_" class="st6" d="M34.7,41.1H20.5c-0.3,0-0.6-0.3-0.6-0.6v-4c0-0.3,0.3-0.6,0.6-0.6h14.2c0.3,0,0.6,0.3,0.6,0.6v4
	C35.3,40.9,35,41.1,34.7,41.1z"/>
<path id="XMLID_7_" class="st6" d="M56.6,51.1H20.5c-0.3,0-0.6-0.3-0.6-0.6v-4c0-0.3,0.3-0.6,0.6-0.6h36.1c0.3,0,0.6,0.3,0.6,0.6v4
	C57.2,50.8,56.9,51.1,56.6,51.1z"/>
<path id="XMLID_8_" class="st6" d="M44,61.3H20.5c-0.3,0-0.6-0.3-0.6-0.6v-4c0-0.3,0.3-0.6,0.6-0.6H44c0.3,0,0.6,0.3,0.6,0.6v4
	C44.6,61,44.3,61.3,44,61.3z"/>
<path id="XMLID_9_" class="st6" d="M56.6,30.9h-6.9c-0.3,0-0.6-0.3-0.6-0.6v-4c0-0.3,0.3-0.6,0.6-0.6h6.9c0.3,0,0.6,0.3,0.6,0.6v4
	C57.2,30.7,56.9,30.9,56.6,30.9z"/>
</svg>
